<mxfile host="app.diagrams.net" modified="2021-12-12T18:55:07.376Z" agent="5.0 (Macintosh; Intel Mac OS X 10_15_7) AppleWebKit/537.36 (KHTML, like Gecko) Chrome/95.0.4638.69 Safari/537.36" etag="EYpz7pMYYrjVMGMD84LS" version="15.9.4" type="github">
  <diagram name="Page-1" id="52a04d89-c75d-2922-d76d-85b35f80e030">
    <mxGraphModel dx="1483" dy="924" grid="1" gridSize="10" guides="1" tooltips="1" connect="1" arrows="1" fold="1" page="1" pageScale="1" pageWidth="1100" pageHeight="850" background="none" math="0" shadow="0">
      <root>
        <mxCell id="0" />
        <mxCell id="1" parent="0" />
        <mxCell id="sphz6j1oBzilMwv7ZF1X-43" style="edgeStyle=orthogonalEdgeStyle;curved=1;rounded=0;orthogonalLoop=1;jettySize=auto;html=1;noEdgeStyle=1;orthogonal=1;" edge="1" parent="1" source="JplWnELaZJ_1SYTGNvaw-16" target="sphz6j1oBzilMwv7ZF1X-17">
          <mxGeometry relative="1" as="geometry">
            <Array as="points">
              <mxPoint x="755.5481256930918" y="168" />
              <mxPoint x="701.6351825494118" y="244" />
            </Array>
          </mxGeometry>
        </mxCell>
        <mxCell id="JplWnELaZJ_1SYTGNvaw-16" value="&lt;b&gt;wtc_merge.m&lt;/b&gt;" style="swimlane;html=1;fontStyle=0;childLayout=stackLayout;horizontal=1;startSize=26;fillColor=#e0e0e0;horizontalStack=0;resizeParent=1;resizeLast=0;collapsible=1;marginBottom=0;swimlaneFillColor=#ffffff;align=center;rounded=1;shadow=0;comic=0;labelBackgroundColor=none;strokeWidth=1;fontFamily=Verdana;fontSize=12" parent="1" vertex="1" collapsed="1">
          <mxGeometry x="655.5481256930918" y="130" width="200" height="26" as="geometry">
            <mxRectangle x="672.5" y="170" width="200" height="100" as="alternateBounds" />
          </mxGeometry>
        </mxCell>
        <mxCell id="JplWnELaZJ_1SYTGNvaw-17" value="所有被试数据按照条件和lag合并到一个文件" style="text;html=1;strokeColor=none;fillColor=none;spacingLeft=4;spacingRight=4;whiteSpace=wrap;overflow=hidden;rotatable=0;points=[[0,0.5],[1,0.5]];portConstraint=eastwest;align=center;" parent="JplWnELaZJ_1SYTGNvaw-16" vertex="1">
          <mxGeometry y="26" width="200" height="74" as="geometry" />
        </mxCell>
        <mxCell id="sphz6j1oBzilMwv7ZF1X-34" style="edgeStyle=orthogonalEdgeStyle;curved=1;rounded=0;orthogonalLoop=1;jettySize=auto;html=1;noEdgeStyle=1;orthogonal=1;" edge="1" parent="1" source="sphz6j1oBzilMwv7ZF1X-1" target="sphz6j1oBzilMwv7ZF1X-20">
          <mxGeometry relative="1" as="geometry">
            <Array as="points">
              <mxPoint x="512.5" y="42" />
              <mxPoint x="473.88145902642515" y="118" />
            </Array>
          </mxGeometry>
        </mxCell>
        <mxCell id="sphz6j1oBzilMwv7ZF1X-39" style="edgeStyle=orthogonalEdgeStyle;curved=1;rounded=0;orthogonalLoop=1;jettySize=auto;html=1;noEdgeStyle=1;orthogonal=1;" edge="1" parent="1" source="sphz6j1oBzilMwv7ZF1X-1" target="JplWnELaZJ_1SYTGNvaw-16">
          <mxGeometry relative="1" as="geometry">
            <Array as="points">
              <mxPoint x="607.5" y="42" />
              <mxPoint x="692.2147923597585" y="118" />
            </Array>
          </mxGeometry>
        </mxCell>
        <mxCell id="sphz6j1oBzilMwv7ZF1X-1" value="wtc数据" style="swimlane;fontStyle=1;childLayout=stackLayout;horizontal=1;startSize=30;horizontalStack=0;resizeParent=1;resizeParentMax=0;resizeLast=0;collapsible=1;marginBottom=0;swimlaneLine=1;glass=0;sketch=0;shadow=0;gradientColor=none;swimlaneFillColor=none;whiteSpace=wrap;fontSize=10;html=0;" vertex="1" collapsed="1" parent="1">
          <mxGeometry x="460" width="200" height="30" as="geometry">
            <mxRectangle x="500" y="40" width="200" height="130" as="alternateBounds" />
          </mxGeometry>
        </mxCell>
        <mxCell id="sphz6j1oBzilMwv7ZF1X-2" value="说明：原始wtc数据，，包含ch x fs 信息，" style="text;strokeColor=none;fillColor=none;align=left;verticalAlign=middle;spacingLeft=4;spacingRight=4;overflow=hidden;points=[[0,0.5],[1,0.5]];portConstraint=eastwest;rotatable=0;fontStyle=0;whiteSpace=wrap;fontSize=10;html=0;aspect=fixed;" vertex="1" parent="sphz6j1oBzilMwv7ZF1X-1">
          <mxGeometry y="30" width="200" height="50" as="geometry" />
        </mxCell>
        <mxCell id="sphz6j1oBzilMwv7ZF1X-3" value="结构：每个被试文件夹下wtc文件夹，每个lag一个文件夹，文件夹内有五个条件的mat文件尾缀为WTC" style="text;strokeColor=none;fillColor=none;align=left;verticalAlign=middle;spacingLeft=4;spacingRight=4;overflow=hidden;points=[[0,0.5],[1,0.5]];portConstraint=eastwest;rotatable=0;fontStyle=0;whiteSpace=wrap;fontSize=10;html=0;aspect=fixed;" vertex="1" parent="sphz6j1oBzilMwv7ZF1X-1">
          <mxGeometry y="80" width="200" height="50" as="geometry" />
        </mxCell>
        <mxCell id="sphz6j1oBzilMwv7ZF1X-36" style="edgeStyle=orthogonalEdgeStyle;curved=1;rounded=0;orthogonalLoop=1;jettySize=auto;html=1;noEdgeStyle=1;orthogonal=1;" edge="1" parent="1" source="JplWnELaZJ_1SYTGNvaw-7" target="sphz6j1oBzilMwv7ZF1X-20">
          <mxGeometry relative="1" as="geometry">
            <Array as="points">
              <mxPoint x="100" y="42" />
              <mxPoint x="347.2147923597585" y="118" />
            </Array>
          </mxGeometry>
        </mxCell>
        <mxCell id="JplWnELaZJ_1SYTGNvaw-7" value="trial_short_rest_wtc.csv" style="swimlane;fontStyle=1;childLayout=stackLayout;horizontal=1;startSize=30;horizontalStack=0;resizeParent=1;resizeParentMax=0;resizeLast=0;collapsible=1;marginBottom=0;swimlaneLine=1;glass=0;sketch=0;shadow=0;gradientColor=none;swimlaneFillColor=none;whiteSpace=wrap;fontSize=10;" parent="1" vertex="1" collapsed="1">
          <mxGeometry width="200" height="30" as="geometry">
            <mxRectangle x="40" y="40" width="200" height="130" as="alternateBounds" />
          </mxGeometry>
        </mxCell>
        <mxCell id="JplWnELaZJ_1SYTGNvaw-8" value="说明：wtc trial水平的信息，多了lag维度，包含wtc文件名" style="text;strokeColor=none;fillColor=none;align=left;verticalAlign=middle;spacingLeft=4;spacingRight=4;overflow=hidden;points=[[0,0.5],[1,0.5]];portConstraint=eastwest;rotatable=0;fontStyle=0;whiteSpace=wrap;fontSize=10;" parent="JplWnELaZJ_1SYTGNvaw-7" vertex="1">
          <mxGeometry y="30" width="200" height="50" as="geometry" />
        </mxCell>
        <mxCell id="JplWnELaZJ_1SYTGNvaw-9" value="结构：functionT文件夹" style="text;strokeColor=none;fillColor=none;align=left;verticalAlign=middle;spacingLeft=4;spacingRight=4;overflow=hidden;points=[[0,0.5],[1,0.5]];portConstraint=eastwest;rotatable=0;fontStyle=0;whiteSpace=wrap;fontSize=10;" parent="JplWnELaZJ_1SYTGNvaw-7" vertex="1">
          <mxGeometry y="80" width="200" height="50" as="geometry" />
        </mxCell>
        <mxCell id="sphz6j1oBzilMwv7ZF1X-40" style="edgeStyle=orthogonalEdgeStyle;curved=1;rounded=0;orthogonalLoop=1;jettySize=auto;html=1;noEdgeStyle=1;orthogonal=1;" edge="1" parent="1" source="sphz6j1oBzilMwv7ZF1X-4" target="JplWnELaZJ_1SYTGNvaw-16">
          <mxGeometry relative="1" as="geometry">
            <Array as="points">
              <mxPoint x="790" y="42" />
              <mxPoint x="755.5481256930918" y="116" />
            </Array>
          </mxGeometry>
        </mxCell>
        <mxCell id="sphz6j1oBzilMwv7ZF1X-4" value="trial_short_conversation.csv" style="swimlane;fontStyle=1;childLayout=stackLayout;horizontal=1;startSize=30;horizontalStack=0;resizeParent=1;resizeParentMax=0;resizeLast=0;collapsible=1;marginBottom=0;swimlaneLine=1;glass=0;sketch=0;shadow=0;gradientColor=none;swimlaneFillColor=none;whiteSpace=wrap;fontSize=10;html=0;" vertex="1" collapsed="1" parent="1">
          <mxGeometry x="690" width="200" height="30" as="geometry">
            <mxRectangle x="730" y="40" width="200" height="130" as="alternateBounds" />
          </mxGeometry>
        </mxCell>
        <mxCell id="sphz6j1oBzilMwv7ZF1X-5" value="说明：行为trial水平的行为信息，包含trait数据和nirs文件名" style="text;strokeColor=none;fillColor=none;align=left;verticalAlign=middle;spacingLeft=4;spacingRight=4;overflow=hidden;points=[[0,0.5],[1,0.5]];portConstraint=eastwest;rotatable=0;fontStyle=0;whiteSpace=wrap;fontSize=10;html=0;aspect=fixed;" vertex="1" parent="sphz6j1oBzilMwv7ZF1X-4">
          <mxGeometry y="30" width="200" height="50" as="geometry" />
        </mxCell>
        <mxCell id="sphz6j1oBzilMwv7ZF1X-6" value="结构：functionT文件夹" style="text;strokeColor=none;fillColor=none;align=left;verticalAlign=middle;spacingLeft=4;spacingRight=4;overflow=hidden;points=[[0,0.5],[1,0.5]];portConstraint=eastwest;rotatable=0;fontStyle=0;whiteSpace=wrap;fontSize=10;html=0;aspect=fixed;" vertex="1" parent="sphz6j1oBzilMwv7ZF1X-4">
          <mxGeometry y="80" width="200" height="50" as="geometry" />
        </mxCell>
        <mxCell id="sphz6j1oBzilMwv7ZF1X-35" style="edgeStyle=orthogonalEdgeStyle;curved=1;rounded=0;orthogonalLoop=1;jettySize=auto;html=1;noEdgeStyle=1;orthogonal=1;" edge="1" parent="1" source="sphz6j1oBzilMwv7ZF1X-8" target="sphz6j1oBzilMwv7ZF1X-20">
          <mxGeometry relative="1" as="geometry">
            <Array as="points">
              <mxPoint x="330" y="42" />
              <mxPoint x="410.54812569309183" y="116" />
            </Array>
          </mxGeometry>
        </mxCell>
        <mxCell id="sphz6j1oBzilMwv7ZF1X-8" value="trial_short_rest.csv" style="swimlane;fontStyle=1;childLayout=stackLayout;horizontal=1;startSize=30;horizontalStack=0;resizeParent=1;resizeParentMax=0;resizeLast=0;collapsible=1;marginBottom=0;swimlaneLine=1;glass=0;sketch=0;shadow=0;gradientColor=none;swimlaneFillColor=none;whiteSpace=wrap;fontSize=10;html=0;" vertex="1" collapsed="1" parent="1">
          <mxGeometry x="230" width="200" height="30" as="geometry">
            <mxRectangle x="270" y="40" width="200" height="130" as="alternateBounds" />
          </mxGeometry>
        </mxCell>
        <mxCell id="sphz6j1oBzilMwv7ZF1X-9" value="说明：行为trial水平的行为信息，包含trait数据，在rest中只是索引" style="text;strokeColor=none;fillColor=none;align=left;verticalAlign=middle;spacingLeft=4;spacingRight=4;overflow=hidden;points=[[0,0.5],[1,0.5]];portConstraint=eastwest;rotatable=0;fontStyle=0;whiteSpace=wrap;fontSize=10;html=0;aspect=fixed;" vertex="1" parent="sphz6j1oBzilMwv7ZF1X-8">
          <mxGeometry y="30" width="200" height="50" as="geometry" />
        </mxCell>
        <mxCell id="sphz6j1oBzilMwv7ZF1X-10" value="结构：functionT文件夹" style="text;strokeColor=none;fillColor=none;align=left;verticalAlign=middle;spacingLeft=4;spacingRight=4;overflow=hidden;points=[[0,0.5],[1,0.5]];portConstraint=eastwest;rotatable=0;fontStyle=0;whiteSpace=wrap;fontSize=10;html=0;aspect=fixed;" vertex="1" parent="sphz6j1oBzilMwv7ZF1X-8">
          <mxGeometry y="80" width="200" height="50" as="geometry" />
        </mxCell>
        <mxCell id="sphz6j1oBzilMwv7ZF1X-41" style="edgeStyle=orthogonalEdgeStyle;curved=1;rounded=0;orthogonalLoop=1;jettySize=auto;html=1;noEdgeStyle=1;orthogonal=1;" edge="1" parent="1" source="sphz6j1oBzilMwv7ZF1X-11" target="JplWnELaZJ_1SYTGNvaw-16">
          <mxGeometry relative="1" as="geometry">
            <Array as="points">
              <mxPoint x="1020" y="42" />
              <mxPoint x="818.8814590264252" y="118" />
            </Array>
          </mxGeometry>
        </mxCell>
        <mxCell id="sphz6j1oBzilMwv7ZF1X-11" value="trial_short_conversation_wtc.csv" style="swimlane;fontStyle=1;childLayout=stackLayout;horizontal=1;startSize=30;horizontalStack=0;resizeParent=1;resizeParentMax=0;resizeLast=0;collapsible=1;marginBottom=0;swimlaneLine=1;glass=0;sketch=0;shadow=0;gradientColor=none;swimlaneFillColor=none;whiteSpace=wrap;fontSize=10;html=0;" vertex="1" collapsed="1" parent="1">
          <mxGeometry x="920" width="200" height="30" as="geometry">
            <mxRectangle x="960" y="40" width="200" height="130" as="alternateBounds" />
          </mxGeometry>
        </mxCell>
        <mxCell id="sphz6j1oBzilMwv7ZF1X-12" value="说明：wtc trial水平的信息，多了lag维度，包含wtc文件名" style="text;strokeColor=none;fillColor=none;align=left;verticalAlign=middle;spacingLeft=4;spacingRight=4;overflow=hidden;points=[[0,0.5],[1,0.5]];portConstraint=eastwest;rotatable=0;fontStyle=0;whiteSpace=wrap;fontSize=10;html=0;aspect=fixed;" vertex="1" parent="sphz6j1oBzilMwv7ZF1X-11">
          <mxGeometry y="30" width="200" height="50" as="geometry" />
        </mxCell>
        <mxCell id="sphz6j1oBzilMwv7ZF1X-13" value="结构：functionT文件夹" style="text;strokeColor=none;fillColor=none;align=left;verticalAlign=middle;spacingLeft=4;spacingRight=4;overflow=hidden;points=[[0,0.5],[1,0.5]];portConstraint=eastwest;rotatable=0;fontStyle=0;whiteSpace=wrap;fontSize=10;html=0;aspect=fixed;" vertex="1" parent="sphz6j1oBzilMwv7ZF1X-11">
          <mxGeometry y="80" width="200" height="50" as="geometry" />
        </mxCell>
        <mxCell id="sphz6j1oBzilMwv7ZF1X-57" style="edgeStyle=orthogonalEdgeStyle;curved=1;rounded=0;orthogonalLoop=1;jettySize=auto;html=1;noEdgeStyle=1;orthogonal=1;" edge="1" parent="1" source="sphz6j1oBzilMwv7ZF1X-17" target="sphz6j1oBzilMwv7ZF1X-50">
          <mxGeometry relative="1" as="geometry">
            <Array as="points">
              <mxPoint x="654.1351825494118" y="298" />
              <mxPoint x="746.861811666412" y="374" />
            </Array>
          </mxGeometry>
        </mxCell>
        <mxCell id="sphz6j1oBzilMwv7ZF1X-17" value="集成WTC数据" style="swimlane;fontStyle=1;childLayout=stackLayout;horizontal=1;startSize=30;horizontalStack=0;resizeParent=1;resizeParentMax=0;resizeLast=0;collapsible=1;marginBottom=0;swimlaneLine=1;glass=0;sketch=0;shadow=0;gradientColor=none;swimlaneFillColor=none;whiteSpace=wrap;fontSize=10;html=0;" vertex="1" collapsed="1" parent="1">
          <mxGeometry x="554.1351825494118" y="256" width="200" height="30" as="geometry">
            <mxRectangle x="500" y="296" width="200" height="130" as="alternateBounds" />
          </mxGeometry>
        </mxCell>
        <mxCell id="sphz6j1oBzilMwv7ZF1X-18" value="说明：每个条件和lag下所有被试的数据，插补但为fisherz" style="text;strokeColor=none;fillColor=none;align=left;verticalAlign=middle;spacingLeft=4;spacingRight=4;overflow=hidden;points=[[0,0.5],[1,0.5]];portConstraint=eastwest;rotatable=0;fontStyle=0;whiteSpace=wrap;fontSize=10;html=0;aspect=fixed;" vertex="1" parent="sphz6j1oBzilMwv7ZF1X-17">
          <mxGeometry y="30" width="200" height="50" as="geometry" />
        </mxCell>
        <mxCell id="sphz6j1oBzilMwv7ZF1X-19" value="结构：wtc_result文件夹" style="text;strokeColor=none;fillColor=none;align=left;verticalAlign=middle;spacingLeft=4;spacingRight=4;overflow=hidden;points=[[0,0.5],[1,0.5]];portConstraint=eastwest;rotatable=0;fontStyle=0;whiteSpace=wrap;fontSize=10;html=0;aspect=fixed;" vertex="1" parent="sphz6j1oBzilMwv7ZF1X-17">
          <mxGeometry y="80" width="200" height="50" as="geometry" />
        </mxCell>
        <mxCell id="sphz6j1oBzilMwv7ZF1X-42" style="edgeStyle=orthogonalEdgeStyle;curved=1;rounded=0;orthogonalLoop=1;jettySize=auto;html=1;noEdgeStyle=1;orthogonal=1;" edge="1" parent="1" source="sphz6j1oBzilMwv7ZF1X-20" target="sphz6j1oBzilMwv7ZF1X-17">
          <mxGeometry relative="1" as="geometry">
            <Array as="points">
              <mxPoint x="410.54812569309183" y="168" />
              <mxPoint x="606.6351825494118" y="244" />
            </Array>
          </mxGeometry>
        </mxCell>
        <mxCell id="sphz6j1oBzilMwv7ZF1X-20" value="&lt;b&gt;wtc_merge_rest.m&lt;/b&gt;" style="swimlane;html=1;fontStyle=0;childLayout=stackLayout;horizontal=1;startSize=26;fillColor=#e0e0e0;horizontalStack=0;resizeParent=1;resizeLast=0;collapsible=1;marginBottom=0;swimlaneFillColor=#ffffff;align=center;rounded=1;shadow=0;comic=0;labelBackgroundColor=none;strokeWidth=1;fontFamily=Verdana;fontSize=12" vertex="1" collapsed="1" parent="1">
          <mxGeometry x="310.54812569309183" y="130" width="200" height="26" as="geometry">
            <mxRectangle x="327.5" y="170" width="200" height="100" as="alternateBounds" />
          </mxGeometry>
        </mxCell>
        <mxCell id="sphz6j1oBzilMwv7ZF1X-21" value="所有被试数据按照条件和lag合并到一个文件" style="text;html=1;strokeColor=none;fillColor=none;spacingLeft=4;spacingRight=4;whiteSpace=wrap;overflow=hidden;rotatable=0;points=[[0,0.5],[1,0.5]];portConstraint=eastwest;align=center;" vertex="1" parent="sphz6j1oBzilMwv7ZF1X-20">
          <mxGeometry y="26" width="200" height="74" as="geometry" />
        </mxCell>
        <mxCell id="sphz6j1oBzilMwv7ZF1X-49" style="edgeStyle=orthogonalEdgeStyle;curved=1;rounded=0;orthogonalLoop=1;jettySize=auto;html=1;noEdgeStyle=1;orthogonal=1;" edge="1" parent="1" source="sphz6j1oBzilMwv7ZF1X-44" target="sphz6j1oBzilMwv7ZF1X-47">
          <mxGeometry relative="1" as="geometry">
            <Array as="points">
              <mxPoint x="1250" y="42" />
              <mxPoint x="1099.3364879687588" y="118" />
            </Array>
          </mxGeometry>
        </mxCell>
        <mxCell id="sphz6j1oBzilMwv7ZF1X-44" value="原始ANOVA结果" style="swimlane;fontStyle=1;childLayout=stackLayout;horizontal=1;startSize=30;horizontalStack=0;resizeParent=1;resizeParentMax=0;resizeLast=0;collapsible=1;marginBottom=0;swimlaneLine=1;glass=0;sketch=0;shadow=0;gradientColor=none;swimlaneFillColor=none;whiteSpace=wrap;fontSize=10;html=0;" vertex="1" collapsed="1" parent="1">
          <mxGeometry x="1150" width="200" height="30" as="geometry">
            <mxRectangle x="150" y="296" width="200" height="130" as="alternateBounds" />
          </mxGeometry>
        </mxCell>
        <mxCell id="sphz6j1oBzilMwv7ZF1X-45" value="说明：使用前期脚本计算得到的ANOVA结果，和新脚本略有偏差" style="text;strokeColor=none;fillColor=none;align=left;verticalAlign=middle;spacingLeft=4;spacingRight=4;overflow=hidden;points=[[0,0.5],[1,0.5]];portConstraint=eastwest;rotatable=0;fontStyle=0;whiteSpace=wrap;fontSize=10;html=0;aspect=fixed;" vertex="1" parent="sphz6j1oBzilMwv7ZF1X-44">
          <mxGeometry y="30" width="200" height="50" as="geometry" />
        </mxCell>
        <mxCell id="sphz6j1oBzilMwv7ZF1X-46" value="结构：separate_language/real" style="text;strokeColor=none;fillColor=none;align=left;verticalAlign=middle;spacingLeft=4;spacingRight=4;overflow=hidden;points=[[0,0.5],[1,0.5]];portConstraint=eastwest;rotatable=0;fontStyle=0;whiteSpace=wrap;fontSize=10;html=0;aspect=fixed;" vertex="1" parent="sphz6j1oBzilMwv7ZF1X-44">
          <mxGeometry y="80" width="200" height="50" as="geometry" />
        </mxCell>
        <mxCell id="sphz6j1oBzilMwv7ZF1X-55" style="edgeStyle=orthogonalEdgeStyle;curved=1;rounded=0;orthogonalLoop=1;jettySize=auto;html=1;noEdgeStyle=1;orthogonal=1;" edge="1" parent="1" source="sphz6j1oBzilMwv7ZF1X-47" target="sphz6j1oBzilMwv7ZF1X-52">
          <mxGeometry relative="1" as="geometry">
            <Array as="points">
              <mxPoint x="1099.3364879687588" y="168" />
              <mxPoint x="948.6729759375175" y="244" />
            </Array>
          </mxGeometry>
        </mxCell>
        <mxCell id="sphz6j1oBzilMwv7ZF1X-47" value="&lt;b&gt;ANOVA_get_real_table.m&lt;/b&gt;" style="swimlane;html=1;fontStyle=0;childLayout=stackLayout;horizontal=1;startSize=26;fillColor=#e0e0e0;horizontalStack=0;resizeParent=1;resizeLast=0;collapsible=1;marginBottom=0;swimlaneFillColor=#ffffff;align=center;rounded=1;shadow=0;comic=0;labelBackgroundColor=none;strokeWidth=1;fontFamily=Verdana;fontSize=12" vertex="1" collapsed="1" parent="1">
          <mxGeometry x="999.3364879687588" y="130" width="200" height="26" as="geometry">
            <mxRectangle x="290" y="400" width="200" height="100" as="alternateBounds" />
          </mxGeometry>
        </mxCell>
        <mxCell id="sphz6j1oBzilMwv7ZF1X-48" value="通过bandSelectFmap函数找到汉语条件下所有显著的cluster" style="text;html=1;strokeColor=none;fillColor=none;spacingLeft=4;spacingRight=4;whiteSpace=wrap;overflow=hidden;rotatable=0;points=[[0,0.5],[1,0.5]];portConstraint=eastwest;align=center;" vertex="1" parent="sphz6j1oBzilMwv7ZF1X-47">
          <mxGeometry y="26" width="200" height="74" as="geometry" />
        </mxCell>
        <mxCell id="sphz6j1oBzilMwv7ZF1X-61" style="edgeStyle=orthogonalEdgeStyle;curved=1;rounded=0;orthogonalLoop=1;jettySize=auto;html=1;noEdgeStyle=1;orthogonal=1;" edge="1" parent="1" source="sphz6j1oBzilMwv7ZF1X-50" target="sphz6j1oBzilMwv7ZF1X-58">
          <mxGeometry relative="1" as="geometry">
            <Array as="points">
              <mxPoint x="800.611811666412" y="424" />
              <mxPoint x="799.0272765123068" y="500" />
            </Array>
          </mxGeometry>
        </mxCell>
        <mxCell id="sphz6j1oBzilMwv7ZF1X-50" value="&lt;b&gt;ANOVA_simple_effect_identity.m&lt;/b&gt;" style="swimlane;html=1;fontStyle=0;childLayout=stackLayout;horizontal=1;startSize=26;fillColor=#e0e0e0;horizontalStack=0;resizeParent=1;resizeLast=0;collapsible=1;marginBottom=0;swimlaneFillColor=#ffffff;align=center;rounded=1;shadow=0;comic=0;labelBackgroundColor=none;strokeWidth=1;fontFamily=Verdana;fontSize=12" vertex="1" collapsed="1" parent="1">
          <mxGeometry x="700.611811666412" y="386" width="200" height="26" as="geometry">
            <mxRectangle x="960.6118116664122" y="386" width="200" height="100" as="alternateBounds" />
          </mxGeometry>
        </mxCell>
        <mxCell id="sphz6j1oBzilMwv7ZF1X-51" value="卡一个threshold取一部分显著结果，计算使用新的ANOVA脚本在cluster水平计算交互作用" style="text;html=1;strokeColor=none;fillColor=none;spacingLeft=4;spacingRight=4;whiteSpace=wrap;overflow=hidden;rotatable=0;points=[[0,0.5],[1,0.5]];portConstraint=eastwest;align=center;" vertex="1" parent="sphz6j1oBzilMwv7ZF1X-50">
          <mxGeometry y="26" width="200" height="74" as="geometry" />
        </mxCell>
        <mxCell id="sphz6j1oBzilMwv7ZF1X-56" style="edgeStyle=orthogonalEdgeStyle;curved=1;rounded=0;orthogonalLoop=1;jettySize=auto;html=1;noEdgeStyle=1;orthogonal=1;" edge="1" parent="1" source="sphz6j1oBzilMwv7ZF1X-52" target="sphz6j1oBzilMwv7ZF1X-50">
          <mxGeometry relative="1" as="geometry">
            <Array as="points">
              <mxPoint x="948.6729759375175" y="298" />
              <mxPoint x="854.361811666412" y="374" />
            </Array>
          </mxGeometry>
        </mxCell>
        <mxCell id="sphz6j1oBzilMwv7ZF1X-52" value="一阶显著数据表" style="swimlane;fontStyle=1;childLayout=stackLayout;horizontal=1;startSize=30;horizontalStack=0;resizeParent=1;resizeParentMax=0;resizeLast=0;collapsible=1;marginBottom=0;swimlaneLine=1;glass=0;sketch=0;shadow=0;gradientColor=none;swimlaneFillColor=none;whiteSpace=wrap;fontSize=10;html=0;" vertex="1" collapsed="1" parent="1">
          <mxGeometry x="848.6729759375175" y="256" width="200" height="30" as="geometry">
            <mxRectangle x="160" y="490" width="200" height="130" as="alternateBounds" />
          </mxGeometry>
        </mxCell>
        <mxCell id="sphz6j1oBzilMwv7ZF1X-53" value="说明：关心效应下所有显著的结果的table" style="text;strokeColor=none;fillColor=none;align=left;verticalAlign=middle;spacingLeft=4;spacingRight=4;overflow=hidden;points=[[0,0.5],[1,0.5]];portConstraint=eastwest;rotatable=0;fontStyle=0;whiteSpace=wrap;fontSize=10;html=0;aspect=fixed;" vertex="1" parent="sphz6j1oBzilMwv7ZF1X-52">
          <mxGeometry y="30" width="200" height="50" as="geometry" />
        </mxCell>
        <mxCell id="sphz6j1oBzilMwv7ZF1X-54" value="结构：separate_language/real/main_effect" style="text;strokeColor=none;fillColor=none;align=left;verticalAlign=middle;spacingLeft=4;spacingRight=4;overflow=hidden;points=[[0,0.5],[1,0.5]];portConstraint=eastwest;rotatable=0;fontStyle=0;whiteSpace=wrap;fontSize=10;html=0;aspect=fixed;" vertex="1" parent="sphz6j1oBzilMwv7ZF1X-52">
          <mxGeometry y="80" width="200" height="50" as="geometry" />
        </mxCell>
        <mxCell id="sphz6j1oBzilMwv7ZF1X-58" value="二阶显著数据表" style="swimlane;fontStyle=1;childLayout=stackLayout;horizontal=1;startSize=30;horizontalStack=0;resizeParent=1;resizeParentMax=0;resizeLast=0;collapsible=1;marginBottom=0;swimlaneLine=1;glass=0;sketch=0;shadow=0;gradientColor=none;swimlaneFillColor=none;whiteSpace=wrap;fontSize=10;html=0;" vertex="1" collapsed="1" parent="1">
          <mxGeometry x="699.0272765123068" y="512" width="200" height="30" as="geometry">
            <mxRectangle x="480" y="630" width="200" height="130" as="alternateBounds" />
          </mxGeometry>
        </mxCell>
        <mxCell id="sphz6j1oBzilMwv7ZF1X-59" value="说明：包含简单效应的table" style="text;strokeColor=none;fillColor=none;align=left;verticalAlign=middle;spacingLeft=4;spacingRight=4;overflow=hidden;points=[[0,0.5],[1,0.5]];portConstraint=eastwest;rotatable=0;fontStyle=0;whiteSpace=wrap;fontSize=10;html=0;aspect=fixed;" vertex="1" parent="sphz6j1oBzilMwv7ZF1X-58">
          <mxGeometry y="30" width="200" height="50" as="geometry" />
        </mxCell>
        <mxCell id="sphz6j1oBzilMwv7ZF1X-60" value="结构：位置同一阶显著表，尾缀多2nd" style="text;strokeColor=none;fillColor=none;align=left;verticalAlign=middle;spacingLeft=4;spacingRight=4;overflow=hidden;points=[[0,0.5],[1,0.5]];portConstraint=eastwest;rotatable=0;fontStyle=0;whiteSpace=wrap;fontSize=10;html=0;aspect=fixed;" vertex="1" parent="sphz6j1oBzilMwv7ZF1X-58">
          <mxGeometry y="80" width="200" height="50" as="geometry" />
        </mxCell>
      </root>
    </mxGraphModel>
  </diagram>
</mxfile>
